<?xml version="1.0" encoding="UTF-8" standalone="no"?>
<!DOCTYPE svg PUBLIC "-//W3C//DTD SVG 1.1//EN"
 "http://www.w3.org/Graphics/SVG/1.1/DTD/svg11.dtd">
<!-- Generated by graphviz version 2.43.0 (0)
 -->
<!-- Title: flujo Pages: 1 -->
<svg width="385pt" height="2075pt"
 viewBox="0.00 0.00 384.50 2075.00" xmlns="http://www.w3.org/2000/svg" xmlns:xlink="http://www.w3.org/1999/xlink">
<g id="graph0" class="graph" transform="scale(1 1) rotate(0) translate(4 2071)">
<title>flujo</title>
<polygon fill="white" stroke="transparent" points="-4,4 -4,-2071 380.5,-2071 380.5,4 -4,4"/>
<!-- start -->
<g id="node1" class="node">
<title>start</title>
<path fill="#e6e6fa" stroke="#5b4a9e" d="M217.5,-2067C217.5,-2067 161.5,-2067 161.5,-2067 155.5,-2067 149.5,-2061 149.5,-2055 149.5,-2055 149.5,-2043 149.5,-2043 149.5,-2037 155.5,-2031 161.5,-2031 161.5,-2031 217.5,-2031 217.5,-2031 223.5,-2031 229.5,-2037 229.5,-2043 229.5,-2043 229.5,-2055 229.5,-2055 229.5,-2061 223.5,-2067 217.5,-2067"/>
<text text-anchor="middle" x="189.5" y="-2045.9" font-family="Helvetica,sans-Serif" font-size="12.00">Iniciar APK</text>
</g>
<!-- auth_check -->
<g id="node2" class="node">
<title>auth_check</title>
<polygon fill="#e6e6fa" stroke="#5b4a9e" points="189.5,-1994 65.02,-1976 189.5,-1958 313.98,-1976 189.5,-1994"/>
<text text-anchor="middle" x="189.5" y="-1972.9" font-family="Helvetica,sans-Serif" font-size="12.00">Usuario autenticado?</text>
</g>
<!-- start&#45;&gt;auth_check -->
<g id="edge1" class="edge">
<title>start&#45;&gt;auth_check</title>
<path fill="none" stroke="#333333" d="M189.5,-2030.81C189.5,-2022.79 189.5,-2013.05 189.5,-2004.07"/>
<polygon fill="#333333" stroke="#333333" points="193,-2004.03 189.5,-1994.03 186,-2004.03 193,-2004.03"/>
</g>
<!-- login_screen -->
<g id="node3" class="node">
<title>login_screen</title>
<polygon fill="#e6e6fa" stroke="#5b4a9e" points="189.5,-1910 89.5,-1910 89.5,-1874 189.5,-1874 189.5,-1910"/>
<text text-anchor="middle" x="139.5" y="-1888.9" font-family="Helvetica,sans-Serif" font-size="12.00">Pantalla Login</text>
</g>
<!-- auth_check&#45;&gt;login_screen -->
<g id="edge2" class="edge">
<title>auth_check&#45;&gt;login_screen</title>
<path fill="none" stroke="#333333" d="M179.86,-1959.19C172.9,-1947.77 163.34,-1932.09 155.27,-1918.86"/>
<polygon fill="#333333" stroke="#333333" points="158.17,-1916.89 149.97,-1910.18 152.19,-1920.54 158.17,-1916.89"/>
<text text-anchor="middle" x="174.5" y="-1931.2" font-family="Helvetica,sans-Serif" font-size="11.00">No</text>
</g>
<!-- save_session -->
<g id="node6" class="node">
<title>save_session</title>
<polygon fill="#e6e6fa" stroke="#5b4a9e" points="278,-1669 101,-1669 101,-1633 278,-1633 278,-1669"/>
<text text-anchor="middle" x="189.5" y="-1654.4" font-family="Helvetica,sans-Serif" font-size="12.00">Marcar sesión como activa</text>
<text text-anchor="middle" x="189.5" y="-1641.4" font-family="Helvetica,sans-Serif" font-size="12.00">(sin token, solo 200 OK)</text>
</g>
<!-- auth_check&#45;&gt;save_session -->
<g id="edge3" class="edge">
<title>auth_check&#45;&gt;save_session</title>
<path fill="none" stroke="#333333" d="M201.84,-1959.7C213.27,-1943.95 228.5,-1918.22 228.5,-1893 228.5,-1893 228.5,-1893 228.5,-1734 228.5,-1713.71 218.64,-1693.09 208.83,-1677.6"/>
<polygon fill="#333333" stroke="#333333" points="211.62,-1675.47 203.14,-1669.12 205.81,-1679.37 211.62,-1675.47"/>
<text text-anchor="middle" x="233.5" y="-1816.2" font-family="Helvetica,sans-Serif" font-size="11.00">Sí</text>
</g>
<!-- login_input -->
<g id="node4" class="node">
<title>login_input</title>
<polygon fill="#e6e6fa" stroke="#5b4a9e" points="192.5,-1837 16.5,-1837 16.5,-1801 192.5,-1801 192.5,-1837"/>
<text text-anchor="middle" x="104.5" y="-1815.9" font-family="Helvetica,sans-Serif" font-size="12.00">Ingresar RUT y contraseña</text>
</g>
<!-- login_screen&#45;&gt;login_input -->
<g id="edge4" class="edge">
<title>login_screen&#45;&gt;login_input</title>
<path fill="none" stroke="#333333" d="M131.03,-1873.81C126.94,-1865.53 121.96,-1855.41 117.41,-1846.19"/>
<polygon fill="#333333" stroke="#333333" points="120.46,-1844.45 112.89,-1837.03 114.18,-1847.55 120.46,-1844.45"/>
</g>
<!-- login_post -->
<g id="node5" class="node">
<title>login_post</title>
<polygon fill="#e6e6fa" stroke="#5b4a9e" points="200,-1753 63,-1753 63,-1717 200,-1717 200,-1753"/>
<text text-anchor="middle" x="131.5" y="-1731.9" font-family="Helvetica,sans-Serif" font-size="12.00">POST /api/auth/login</text>
</g>
<!-- login_input&#45;&gt;login_post -->
<g id="edge5" class="edge">
<title>login_input&#45;&gt;login_post</title>
<path fill="none" stroke="#333333" d="M107.67,-1800.8C109.54,-1791.8 112.19,-1780.67 115.5,-1771 116.45,-1768.21 117.55,-1765.35 118.72,-1762.52"/>
<polygon fill="#333333" stroke="#333333" points="122.01,-1763.73 122.83,-1753.17 115.6,-1760.91 122.01,-1763.73"/>
</g>
<!-- login_post&#45;&gt;login_input -->
<g id="edge6" class="edge">
<title>login_post&#45;&gt;login_input</title>
<path fill="none" stroke="#333333" d="M125.87,-1753.08C122.26,-1764.07 117.48,-1778.59 113.36,-1791.11"/>
<polygon fill="#333333" stroke="#333333" points="110.03,-1790.02 110.23,-1800.61 116.68,-1792.21 110.03,-1790.02"/>
<text text-anchor="middle" x="134.5" y="-1774.2" font-family="Helvetica,sans-Serif" font-size="11.00">Error</text>
</g>
<!-- login_post&#45;&gt;save_session -->
<g id="edge7" class="edge">
<title>login_post&#45;&gt;save_session</title>
<path fill="none" stroke="#333333" d="M143.8,-1716.61C151.85,-1705.23 162.51,-1690.16 171.51,-1677.44"/>
<polygon fill="#333333" stroke="#333333" points="174.5,-1679.27 177.42,-1669.08 168.78,-1675.23 174.5,-1679.27"/>
<text text-anchor="middle" x="184" y="-1690.2" font-family="Helvetica,sans-Serif" font-size="11.00">200 OK</text>
</g>
<!-- tienda -->
<g id="node7" class="node">
<title>tienda</title>
<polygon fill="#e6e6fa" stroke="#5b4a9e" points="277.5,-1596 101.5,-1596 101.5,-1560 277.5,-1560 277.5,-1596"/>
<text text-anchor="middle" x="189.5" y="-1581.4" font-family="Helvetica,sans-Serif" font-size="12.00">Tienda asignada</text>
<text text-anchor="middle" x="189.5" y="-1568.4" font-family="Helvetica,sans-Serif" font-size="12.00">(se muestra, sin selección)</text>
</g>
<!-- save_session&#45;&gt;tienda -->
<g id="edge8" class="edge">
<title>save_session&#45;&gt;tienda</title>
<path fill="none" stroke="#333333" d="M189.5,-1632.81C189.5,-1624.79 189.5,-1615.05 189.5,-1606.07"/>
<polygon fill="#333333" stroke="#333333" points="193,-1606.03 189.5,-1596.03 186,-1606.03 193,-1606.03"/>
</g>
<!-- evento_check -->
<g id="node8" class="node">
<title>evento_check</title>
<polygon fill="#e6e6fa" stroke="#5b4a9e" points="189.5,-1523 66.5,-1489 189.5,-1455 312.5,-1489 189.5,-1523"/>
<text text-anchor="middle" x="189.5" y="-1492.4" font-family="Helvetica,sans-Serif" font-size="12.00">Más de un evento</text>
<text text-anchor="middle" x="189.5" y="-1479.4" font-family="Helvetica,sans-Serif" font-size="12.00">asignado?</text>
</g>
<!-- tienda&#45;&gt;evento_check -->
<g id="edge9" class="edge">
<title>tienda&#45;&gt;evento_check</title>
<path fill="none" stroke="#333333" d="M189.5,-1559.81C189.5,-1552.1 189.5,-1542.63 189.5,-1533.17"/>
<polygon fill="#333333" stroke="#333333" points="193,-1533 189.5,-1523 186,-1533 193,-1533"/>
</g>
<!-- evento_unico -->
<g id="node9" class="node">
<title>evento_unico</title>
<polygon fill="#e6e6fa" stroke="#5b4a9e" points="252,-1353 111,-1353 111,-1317 252,-1317 252,-1353"/>
<text text-anchor="middle" x="181.5" y="-1338.4" font-family="Helvetica,sans-Serif" font-size="12.00">Evento asignado</text>
<text text-anchor="middle" x="181.5" y="-1325.4" font-family="Helvetica,sans-Serif" font-size="12.00">(único, sin selección)</text>
</g>
<!-- evento_check&#45;&gt;evento_unico -->
<g id="edge13" class="edge">
<title>evento_check&#45;&gt;evento_unico</title>
<path fill="none" stroke="#333333" d="M187.78,-1455.39C186.34,-1427.91 184.29,-1389.06 182.93,-1363.22"/>
<polygon fill="#333333" stroke="#333333" points="186.42,-1362.82 182.4,-1353.02 179.43,-1363.19 186.42,-1362.82"/>
<text text-anchor="middle" x="194.5" y="-1428.2" font-family="Helvetica,sans-Serif" font-size="11.00">No</text>
</g>
<!-- mostrar_eventos -->
<g id="node10" class="node">
<title>mostrar_eventos</title>
<polygon fill="#e6e6fa" stroke="#5b4a9e" points="376.5,-1407 198.5,-1407 198.5,-1371 376.5,-1371 376.5,-1407"/>
<text text-anchor="middle" x="287.5" y="-1385.9" font-family="Helvetica,sans-Serif" font-size="12.00">Mostrar eventos asignados</text>
</g>
<!-- evento_check&#45;&gt;mostrar_eventos -->
<g id="edge10" class="edge">
<title>evento_check&#45;&gt;mostrar_eventos</title>
<path fill="none" stroke="#333333" d="M215.5,-1462C230.28,-1447.22 248.67,-1428.83 263.16,-1414.34"/>
<polygon fill="#333333" stroke="#333333" points="265.75,-1416.7 270.34,-1407.16 260.8,-1411.75 265.75,-1416.7"/>
<text text-anchor="middle" x="254.5" y="-1428.2" font-family="Helvetica,sans-Serif" font-size="11.00">Sí</text>
</g>
<!-- muestra_check -->
<g id="node12" class="node">
<title>muestra_check</title>
<polygon fill="#e6e6fa" stroke="#5b4a9e" points="199.5,-1226 73.03,-1208 199.5,-1190 325.97,-1208 199.5,-1226"/>
<text text-anchor="middle" x="199.5" y="-1204.9" font-family="Helvetica,sans-Serif" font-size="12.00">Muestra descargada?</text>
</g>
<!-- evento_unico&#45;&gt;muestra_check -->
<g id="edge14" class="edge">
<title>evento_unico&#45;&gt;muestra_check</title>
<path fill="none" stroke="#333333" d="M183.97,-1316.88C186.97,-1296.03 192.08,-1260.56 195.61,-1236.01"/>
<polygon fill="#333333" stroke="#333333" points="199.1,-1236.31 197.06,-1225.91 192.18,-1235.31 199.1,-1236.31"/>
</g>
<!-- seleccionar_evento -->
<g id="node11" class="node">
<title>seleccionar_evento</title>
<polygon fill="#e6e6fa" stroke="#5b4a9e" points="350,-1299 219,-1299 219,-1263 350,-1263 350,-1299"/>
<text text-anchor="middle" x="284.5" y="-1277.9" font-family="Helvetica,sans-Serif" font-size="12.00">Seleccionar evento</text>
</g>
<!-- mostrar_eventos&#45;&gt;seleccionar_evento -->
<g id="edge11" class="edge">
<title>mostrar_eventos&#45;&gt;seleccionar_evento</title>
<path fill="none" stroke="#333333" d="M287.02,-1370.97C286.55,-1354.38 285.83,-1328.88 285.28,-1309.43"/>
<polygon fill="#333333" stroke="#333333" points="288.77,-1309.24 284.99,-1299.34 281.78,-1309.44 288.77,-1309.24"/>
</g>
<!-- seleccionar_evento&#45;&gt;muestra_check -->
<g id="edge12" class="edge">
<title>seleccionar_evento&#45;&gt;muestra_check</title>
<path fill="none" stroke="#333333" d="M263.92,-1262.81C252.16,-1252.98 237.3,-1240.57 224.82,-1230.15"/>
<polygon fill="#333333" stroke="#333333" points="226.93,-1227.36 217.02,-1223.63 222.45,-1232.73 226.93,-1227.36"/>
</g>
<!-- get_muestra -->
<g id="node13" class="node">
<title>get_muestra</title>
<polygon fill="#e6e6fa" stroke="#5b4a9e" points="203,-1142 0,-1142 0,-1106 203,-1106 203,-1142"/>
<text text-anchor="middle" x="101.5" y="-1120.9" font-family="Helvetica,sans-Serif" font-size="12.00">GET /api/muestras/{evento_id}</text>
</g>
<!-- muestra_check&#45;&gt;get_muestra -->
<g id="edge15" class="edge">
<title>muestra_check&#45;&gt;get_muestra</title>
<path fill="none" stroke="#333333" d="M181.98,-1192.34C167.5,-1180.23 146.67,-1162.79 129.82,-1148.7"/>
<polygon fill="#333333" stroke="#333333" points="131.83,-1145.82 121.92,-1142.09 127.34,-1151.19 131.83,-1145.82"/>
<text text-anchor="middle" x="164.5" y="-1163.2" font-family="Helvetica,sans-Serif" font-size="11.00">No</text>
</g>
<!-- ver_zonas -->
<g id="node16" class="node">
<title>ver_zonas</title>
<polygon fill="#e6e6fa" stroke="#5b4a9e" points="244,-923 105,-923 105,-887 244,-887 244,-923"/>
<text text-anchor="middle" x="174.5" y="-901.9" font-family="Helvetica,sans-Serif" font-size="12.00">Ver zonas asignadas</text>
</g>
<!-- muestra_check&#45;&gt;ver_zonas -->
<g id="edge19" class="edge">
<title>muestra_check&#45;&gt;ver_zonas</title>
<path fill="none" stroke="#333333" d="M209.94,-1191.41C219.61,-1175.45 232.5,-1149.55 232.5,-1125 232.5,-1125 232.5,-1125 232.5,-977 232.5,-958.51 220.55,-942.17 207.5,-929.85"/>
<polygon fill="#333333" stroke="#333333" points="209.6,-927.03 199.77,-923.07 204.98,-932.3 209.6,-927.03"/>
<text text-anchor="middle" x="237.5" y="-1048.2" font-family="Helvetica,sans-Serif" font-size="11.00">Sí</text>
</g>
<!-- save_muestra -->
<g id="node14" class="node">
<title>save_muestra</title>
<polygon fill="#e6e6fa" stroke="#5b4a9e" points="196.5,-1069 6.5,-1069 6.5,-1033 196.5,-1033 196.5,-1069"/>
<text text-anchor="middle" x="101.5" y="-1047.9" font-family="Helvetica,sans-Serif" font-size="12.00">Guardar muestra localmente</text>
</g>
<!-- get_muestra&#45;&gt;save_muestra -->
<g id="edge16" class="edge">
<title>get_muestra&#45;&gt;save_muestra</title>
<path fill="none" stroke="#333333" d="M101.5,-1105.81C101.5,-1097.79 101.5,-1088.05 101.5,-1079.07"/>
<polygon fill="#333333" stroke="#333333" points="105,-1079.03 101.5,-1069.03 98,-1079.03 105,-1079.03"/>
</g>
<!-- sync_descarga -->
<g id="node15" class="node">
<title>sync_descarga</title>
<polygon fill="#e6e6fa" stroke="#5b4a9e" points="200.5,-996 24.5,-996 24.5,-960 200.5,-960 200.5,-996"/>
<text text-anchor="middle" x="112.5" y="-981.4" font-family="Helvetica,sans-Serif" font-size="12.00">POST /api/sincronizaciones</text>
<text text-anchor="middle" x="112.5" y="-968.4" font-family="Helvetica,sans-Serif" font-size="12.00">DESCARGA_A_PDA</text>
</g>
<!-- save_muestra&#45;&gt;sync_descarga -->
<g id="edge17" class="edge">
<title>save_muestra&#45;&gt;sync_descarga</title>
<path fill="none" stroke="#333333" d="M104.16,-1032.81C105.41,-1024.79 106.92,-1015.05 108.31,-1006.07"/>
<polygon fill="#333333" stroke="#333333" points="111.79,-1006.45 109.86,-996.03 104.87,-1005.38 111.79,-1006.45"/>
</g>
<!-- sync_descarga&#45;&gt;ver_zonas -->
<g id="edge18" class="edge">
<title>sync_descarga&#45;&gt;ver_zonas</title>
<path fill="none" stroke="#333333" d="M127.51,-959.81C135.12,-951.09 144.51,-940.34 152.89,-930.75"/>
<polygon fill="#333333" stroke="#333333" points="155.69,-932.86 159.63,-923.03 150.42,-928.26 155.69,-932.86"/>
</g>
<!-- get_zonas -->
<g id="node17" class="node">
<title>get_zonas</title>
<polygon fill="#e6e6fa" stroke="#5b4a9e" points="264.5,-850 84.5,-850 84.5,-814 264.5,-814 264.5,-850"/>
<text text-anchor="middle" x="174.5" y="-828.9" font-family="Helvetica,sans-Serif" font-size="12.00">GET /api/asignaciones&#45;zona</text>
</g>
<!-- ver_zonas&#45;&gt;get_zonas -->
<g id="edge20" class="edge">
<title>ver_zonas&#45;&gt;get_zonas</title>
<path fill="none" stroke="#333333" d="M174.5,-886.81C174.5,-878.79 174.5,-869.05 174.5,-860.07"/>
<polygon fill="#333333" stroke="#333333" points="178,-860.03 174.5,-850.03 171,-860.03 178,-860.03"/>
</g>
<!-- mostrar_zonas -->
<g id="node18" class="node">
<title>mostrar_zonas</title>
<polygon fill="#e6e6fa" stroke="#5b4a9e" points="265.5,-777 83.5,-777 83.5,-741 265.5,-741 265.5,-777"/>
<text text-anchor="middle" x="174.5" y="-755.9" font-family="Helvetica,sans-Serif" font-size="12.00">Mostrar zonas del operador</text>
</g>
<!-- get_zonas&#45;&gt;mostrar_zonas -->
<g id="edge21" class="edge">
<title>get_zonas&#45;&gt;mostrar_zonas</title>
<path fill="none" stroke="#333333" d="M174.5,-813.81C174.5,-805.79 174.5,-796.05 174.5,-787.07"/>
<polygon fill="#333333" stroke="#333333" points="178,-787.03 174.5,-777.03 171,-787.03 178,-787.03"/>
</g>
<!-- escanear_tag -->
<g id="node19" class="node">
<title>escanear_tag</title>
<polygon fill="#e6e6fa" stroke="#5b4a9e" points="265.5,-704 83.5,-704 83.5,-668 265.5,-668 265.5,-704"/>
<text text-anchor="middle" x="174.5" y="-689.4" font-family="Helvetica,sans-Serif" font-size="12.00">Escanear tag</text>
<text text-anchor="middle" x="174.5" y="-676.4" font-family="Helvetica,sans-Serif" font-size="12.00">(genera sesión de escaneo)</text>
</g>
<!-- mostrar_zonas&#45;&gt;escanear_tag -->
<g id="edge22" class="edge">
<title>mostrar_zonas&#45;&gt;escanear_tag</title>
<path fill="none" stroke="#333333" d="M174.5,-740.81C174.5,-732.79 174.5,-723.05 174.5,-714.07"/>
<polygon fill="#333333" stroke="#333333" points="178,-714.03 174.5,-704.03 171,-714.03 178,-714.03"/>
</g>
<!-- seleccionar_zona -->
<g id="node20" class="node">
<title>seleccionar_zona</title>
<polygon fill="#e6e6fa" stroke="#5b4a9e" points="260.5,-631 88.5,-631 88.5,-595 260.5,-595 260.5,-631"/>
<text text-anchor="middle" x="174.5" y="-616.4" font-family="Helvetica,sans-Serif" font-size="12.00">Seleccionar zona</text>
<text text-anchor="middle" x="174.5" y="-603.4" font-family="Helvetica,sans-Serif" font-size="12.00">(libre, no vinculada al tag)</text>
</g>
<!-- escanear_tag&#45;&gt;seleccionar_zona -->
<g id="edge23" class="edge">
<title>escanear_tag&#45;&gt;seleccionar_zona</title>
<path fill="none" stroke="#333333" d="M174.5,-667.81C174.5,-659.79 174.5,-650.05 174.5,-641.07"/>
<polygon fill="#333333" stroke="#333333" points="178,-641.03 174.5,-631.03 171,-641.03 178,-641.03"/>
</g>
<!-- escanear_sku -->
<g id="node21" class="node">
<title>escanear_sku</title>
<polygon fill="#e6e6fa" stroke="#5b4a9e" points="279,-558 70,-558 70,-522 279,-522 279,-558"/>
<text text-anchor="middle" x="174.5" y="-536.9" font-family="Helvetica,sans-Serif" font-size="12.00">Escanear SKU / ingresar manual</text>
</g>
<!-- seleccionar_zona&#45;&gt;escanear_sku -->
<g id="edge24" class="edge">
<title>seleccionar_zona&#45;&gt;escanear_sku</title>
<path fill="none" stroke="#333333" d="M174.5,-594.81C174.5,-586.79 174.5,-577.05 174.5,-568.07"/>
<polygon fill="#333333" stroke="#333333" points="178,-568.03 174.5,-558.03 171,-568.03 178,-568.03"/>
</g>
<!-- ingresar_cantidad -->
<g id="node22" class="node">
<title>ingresar_cantidad</title>
<polygon fill="#e6e6fa" stroke="#5b4a9e" points="199.5,-485 43.5,-485 43.5,-449 199.5,-449 199.5,-485"/>
<text text-anchor="middle" x="121.5" y="-463.9" font-family="Helvetica,sans-Serif" font-size="12.00">Ingresar cantidad física</text>
</g>
<!-- escanear_sku&#45;&gt;ingresar_cantidad -->
<g id="edge25" class="edge">
<title>escanear_sku&#45;&gt;ingresar_cantidad</title>
<path fill="none" stroke="#333333" d="M161.67,-521.81C155.29,-513.27 147.45,-502.77 140.4,-493.32"/>
<polygon fill="#333333" stroke="#333333" points="143,-490.95 134.21,-485.03 137.39,-495.14 143,-490.95"/>
</g>
<!-- confirmar_ubicacion -->
<g id="node23" class="node">
<title>confirmar_ubicacion</title>
<polygon fill="#e6e6fa" stroke="#5b4a9e" points="183,-412 46,-412 46,-376 183,-376 183,-412"/>
<text text-anchor="middle" x="114.5" y="-390.9" font-family="Helvetica,sans-Serif" font-size="12.00">Confirmar ubicación</text>
</g>
<!-- ingresar_cantidad&#45;&gt;confirmar_ubicacion -->
<g id="edge26" class="edge">
<title>ingresar_cantidad&#45;&gt;confirmar_ubicacion</title>
<path fill="none" stroke="#333333" d="M119.81,-448.81C119.01,-440.79 118.05,-431.05 117.17,-422.07"/>
<polygon fill="#333333" stroke="#333333" points="120.64,-421.64 116.18,-412.03 113.68,-422.32 120.64,-421.64"/>
</g>
<!-- guardar_conteo -->
<g id="node24" class="node">
<title>guardar_conteo</title>
<polygon fill="#e6e6fa" stroke="#5b4a9e" points="200,-339 19,-339 19,-303 200,-303 200,-339"/>
<text text-anchor="middle" x="109.5" y="-317.9" font-family="Helvetica,sans-Serif" font-size="12.00">Guardar conteo localmente</text>
</g>
<!-- confirmar_ubicacion&#45;&gt;guardar_conteo -->
<g id="edge27" class="edge">
<title>confirmar_ubicacion&#45;&gt;guardar_conteo</title>
<path fill="none" stroke="#333333" d="M113.29,-375.81C112.72,-367.79 112.04,-358.05 111.41,-349.07"/>
<polygon fill="#333333" stroke="#333333" points="114.89,-348.76 110.7,-339.03 107.91,-349.25 114.89,-348.76"/>
</g>
<!-- mas_productos -->
<g id="node25" class="node">
<title>mas_productos</title>
<polygon fill="#e6e6fa" stroke="#5b4a9e" points="168.5,-266 72.97,-248 168.5,-230 264.03,-248 168.5,-266"/>
<text text-anchor="middle" x="168.5" y="-244.9" font-family="Helvetica,sans-Serif" font-size="12.00">Más productos?</text>
</g>
<!-- guardar_conteo&#45;&gt;mas_productos -->
<g id="edge28" class="edge">
<title>guardar_conteo&#45;&gt;mas_productos</title>
<path fill="none" stroke="#333333" d="M123.78,-302.81C131.46,-293.58 141.02,-282.07 149.33,-272.07"/>
<polygon fill="#333333" stroke="#333333" points="152.25,-274.03 155.95,-264.1 146.87,-269.55 152.25,-274.03"/>
</g>
<!-- mas_productos&#45;&gt;escanear_sku -->
<g id="edge29" class="edge">
<title>mas_productos&#45;&gt;escanear_sku</title>
<path fill="none" stroke="#333333" d="M189.82,-262.24C207.07,-274.77 228.5,-295.31 228.5,-320 228.5,-468 228.5,-468 228.5,-468 228.5,-485.95 217.42,-502.21 205.31,-514.62"/>
<polygon fill="#333333" stroke="#333333" points="202.55,-512.41 197.71,-521.83 207.37,-517.48 202.55,-512.41"/>
<text text-anchor="middle" x="233.5" y="-391.2" font-family="Helvetica,sans-Serif" font-size="11.00">Sí</text>
</g>
<!-- post_conteos -->
<g id="node26" class="node">
<title>post_conteos</title>
<polygon fill="#e6e6fa" stroke="#5b4a9e" points="231,-182 106,-182 106,-146 231,-146 231,-182"/>
<text text-anchor="middle" x="168.5" y="-160.9" font-family="Helvetica,sans-Serif" font-size="12.00">POST /api/conteos</text>
</g>
<!-- mas_productos&#45;&gt;post_conteos -->
<g id="edge30" class="edge">
<title>mas_productos&#45;&gt;post_conteos</title>
<path fill="none" stroke="#333333" d="M168.5,-229.61C168.5,-218.77 168.5,-204.6 168.5,-192.29"/>
<polygon fill="#333333" stroke="#333333" points="172,-192.08 168.5,-182.08 165,-192.08 172,-192.08"/>
<text text-anchor="middle" x="176.5" y="-203.2" font-family="Helvetica,sans-Serif" font-size="11.00">No</text>
</g>
<!-- sync_carga -->
<g id="node27" class="node">
<title>sync_carga</title>
<polygon fill="#e6e6fa" stroke="#5b4a9e" points="256.5,-109 80.5,-109 80.5,-73 256.5,-73 256.5,-109"/>
<text text-anchor="middle" x="168.5" y="-94.4" font-family="Helvetica,sans-Serif" font-size="12.00">POST /api/sincronizaciones</text>
<text text-anchor="middle" x="168.5" y="-81.4" font-family="Helvetica,sans-Serif" font-size="12.00">CARGA_DESDE_PDA</text>
</g>
<!-- post_conteos&#45;&gt;sync_carga -->
<g id="edge31" class="edge">
<title>post_conteos&#45;&gt;sync_carga</title>
<path fill="none" stroke="#333333" d="M168.5,-145.81C168.5,-137.79 168.5,-128.05 168.5,-119.07"/>
<polygon fill="#333333" stroke="#333333" points="172,-119.03 168.5,-109.03 165,-119.03 172,-119.03"/>
</g>
<!-- fin -->
<g id="node28" class="node">
<title>fin</title>
<path fill="#e6e6fa" stroke="#5b4a9e" d="M203,-36C203,-36 134,-36 134,-36 128,-36 122,-30 122,-24 122,-24 122,-12 122,-12 122,-6 128,0 134,0 134,0 203,0 203,0 209,0 215,-6 215,-12 215,-12 215,-24 215,-24 215,-30 209,-36 203,-36"/>
<text text-anchor="middle" x="168.5" y="-14.9" font-family="Helvetica,sans-Serif" font-size="12.00">Fin del demo</text>
</g>
<!-- sync_carga&#45;&gt;fin -->
<g id="edge32" class="edge">
<title>sync_carga&#45;&gt;fin</title>
<path fill="none" stroke="#333333" d="M168.5,-72.81C168.5,-64.79 168.5,-55.05 168.5,-46.07"/>
<polygon fill="#333333" stroke="#333333" points="172,-46.03 168.5,-36.03 165,-46.03 172,-46.03"/>
</g>
</g>
</svg>
